<svg width="209" height="136" viewBox="0 0 209 136" fill="none" xmlns="http://www.w3.org/2000/svg">
<path d="M206.747 54.2097C206.747 51.9846 205.73 49.8506 203.92 48.2772C202.11 46.7038 199.654 45.8198 197.094 45.8198H11.8798C9.31963 45.8198 6.86428 46.7038 5.05394 48.2772C3.2436 49.8506 2.22656 51.9846 2.22656 54.2097V81.3593C2.22656 82.4611 2.47625 83.5521 2.96137 84.57C3.4465 85.5879 4.15755 86.5128 5.05394 87.2918C5.95033 88.0709 7.0145 88.6889 8.18569 89.1105C9.35688 89.5322 10.6122 89.7492 11.8798 89.7492H197.12C198.388 89.7492 199.643 89.5322 200.814 89.1105C201.985 88.6889 203.049 88.0709 203.946 87.2918C204.842 86.5128 205.553 85.5879 206.038 84.57C206.523 83.5521 206.773 82.4611 206.773 81.3593L206.747 54.2097Z" fill="#3B3D40"/>
<g style="mix-blend-mode:multiply" opacity="0.5">
<path d="M206.747 54.2097C206.747 51.9846 205.73 49.8506 203.92 48.2772C202.11 46.7038 199.654 45.8198 197.094 45.8198H11.8798C9.31963 45.8198 6.86428 46.7038 5.05394 48.2772C3.2436 49.8506 2.22656 51.9846 2.22656 54.2097V81.3593C2.22656 82.4611 2.47625 83.5521 2.96137 84.57C3.4465 85.5879 4.15755 86.5128 5.05394 87.2918C5.95033 88.0709 7.0145 88.6889 8.18569 89.1105C9.35688 89.5322 10.6122 89.7492 11.8798 89.7492H197.12C198.388 89.7492 199.643 89.5322 200.814 89.1105C201.985 88.6889 203.049 88.0709 203.946 87.2918C204.842 86.5128 205.553 85.5879 206.038 84.57C206.523 83.5521 206.773 82.4611 206.773 81.3593L206.747 54.2097Z" fill="#3B3D40"/>
</g>
<rect x="29.6777" y="65.0322" width="20.9781" height="2.79708" rx="1.39854" fill="#D9D9D9"/>
<path d="M206.747 98.0945C206.747 95.8693 205.73 93.7353 203.92 92.1619C202.11 90.5885 199.654 89.7046 197.094 89.7046H11.8798C9.31963 89.7046 6.86428 90.5885 5.05394 92.1619C3.2436 93.7353 2.22656 95.8693 2.22656 98.0945V125.244C2.22656 127.469 3.2436 129.603 5.05394 131.177C6.86428 132.75 9.31963 133.634 11.8798 133.634H197.12C199.68 133.634 202.135 132.75 203.946 131.177C205.756 129.603 206.773 127.469 206.773 125.244L206.747 98.0945Z" fill="#262626"/>
<g style="mix-blend-mode:multiply" opacity="0.5">
<path d="M16.4104 129.266V94.0842C16.4055 92.6036 16.6772 91.132 17.2149 89.7271H11.8798C10.6122 89.7271 9.35688 89.9441 8.18569 90.3657C7.0145 90.7873 5.95033 91.4053 5.05394 92.1844C4.15755 92.9635 3.4465 93.8884 2.96137 94.9063C2.47625 95.9242 2.22656 97.0151 2.22656 98.1169V125.267C2.22656 127.492 3.2436 129.626 5.05394 131.199C6.86428 132.772 9.31963 133.656 11.8798 133.656H17.2149C16.6741 132.241 16.4024 130.758 16.4104 129.266Z" fill="#262626"/>
</g>
<path d="M206.747 10.3249C206.747 8.0998 205.73 5.9658 203.92 4.3924C202.11 2.81899 199.654 1.93506 197.094 1.93506H11.8798C9.31963 1.93506 6.86428 2.81899 5.05394 4.3924C3.2436 5.9658 2.22656 8.0998 2.22656 10.3249V37.4745C2.22656 39.6997 3.2436 41.8337 5.05394 43.4071C6.86428 44.9805 9.31963 45.8644 11.8798 45.8644H197.12C199.68 45.8644 202.135 44.9805 203.946 43.4071C205.756 41.8337 206.773 39.6997 206.773 37.4745L206.747 10.3249Z" fill="#262626"/>
<rect x="29.6777" y="22.3765" width="20.9781" height="2.79708" rx="1.39854" fill="#D9D9D9"/>
<rect x="29.6777" y="109.086" width="20.9781" height="2.79708" rx="1.39854" fill="#D9D9D9"/>
<g style="mix-blend-mode:multiply" opacity="0.5">
<path d="M16.4104 41.4855V6.30955C16.406 4.83077 16.6777 3.36116 17.2149 1.95801H11.8798C9.31963 1.95801 6.86428 2.84194 5.05394 4.41535C3.2436 5.98875 2.22656 8.12275 2.22656 10.3479V37.4975C2.22656 39.7226 3.2436 41.8566 5.05394 43.43C6.86428 45.0034 9.31963 45.8874 11.8798 45.8874H17.2149C16.6727 44.4679 16.401 42.9811 16.4104 41.4855Z" fill="#3B3D40"/>
</g>
<path d="M209 37.4748V10.3251C208.997 7.58765 207.744 4.96313 205.517 3.02743C203.289 1.09174 200.27 0.00296105 197.12 0H11.88C8.73027 0.00296105 5.71054 1.09174 3.48335 3.02743C1.25616 4.96313 0.00342601 7.58765 1.90666e-05 10.3251V37.4748C-0.00178508 39.1144 0.44623 40.7308 1.3069 42.1899C2.16758 43.649 3.4161 44.9087 4.94894 45.8646C3.41495 46.8195 2.16557 48.079 1.30476 49.5384C0.443959 50.9977 -0.00336573 52.6146 1.90666e-05 54.2545V81.4041C-0.00231126 83.0438 0.445472 84.6604 1.30619 86.1196C2.1669 87.5788 3.41572 88.8384 4.94894 89.794C3.41495 90.7489 2.16557 92.0084 1.30476 93.4677C0.443959 94.927 -0.00336573 96.5439 1.90666e-05 98.1838V125.333C0.00342601 128.071 1.25616 130.695 3.48335 132.631C5.71054 134.567 8.73027 135.656 11.88 135.659H197.12C200.27 135.656 203.289 134.567 205.517 132.631C207.744 130.695 208.997 128.071 209 125.333V98.0943C209.003 96.4544 208.556 94.8376 207.695 93.3782C206.834 91.9189 205.585 90.6594 204.051 89.7045C205.584 88.7489 206.833 87.4893 207.694 86.0301C208.555 84.5709 209.002 82.9544 209 81.3146V54.2097C209.003 52.5698 208.556 50.9529 207.695 49.4936C206.834 48.0343 205.585 46.7748 204.051 45.8199C205.577 44.8684 206.821 43.6158 207.681 42.1651C208.542 40.7143 208.994 39.1068 209 37.4748ZM204.495 125.244C204.493 126.944 203.716 128.573 202.333 129.775C200.95 130.977 199.075 131.652 197.12 131.654H11.88C9.92451 131.652 8.04962 130.977 6.66688 129.775C5.28415 128.573 4.50659 126.944 4.50488 125.244V98.0943C4.50659 96.3948 5.28415 94.7653 6.66688 93.5635C8.04962 92.3618 9.92451 91.686 11.88 91.6845H197.12C199.075 91.686 200.95 92.3618 202.333 93.5635C203.716 94.7653 204.493 96.3948 204.495 98.0943V125.244ZM204.495 54.2097V81.3594C204.493 83.0589 203.716 84.6884 202.333 85.8902C200.95 87.0919 199.075 87.7677 197.12 87.7692H11.88C9.92451 87.7677 8.04962 87.0919 6.66688 85.8902C5.28415 84.6884 4.50659 83.0589 4.50488 81.3594V54.2097C4.50659 52.5102 5.28415 50.8807 6.66688 49.6789C8.04962 48.4772 9.92451 47.8014 11.88 47.7999H197.12C199.075 47.8014 200.95 48.4772 202.333 49.6789C203.716 50.8807 204.493 52.5102 204.495 54.2097ZM204.495 37.4748C204.493 39.1743 203.716 40.8038 202.333 42.0056C200.95 43.2073 199.075 43.8831 197.12 43.8846H11.88C9.92451 43.8831 8.04962 43.2073 6.66688 42.0056C5.28415 40.8038 4.50659 39.1743 4.50488 37.4748V10.3251C4.50659 8.62559 5.28415 6.99607 6.66688 5.79431C8.04962 4.59255 9.92451 3.91675 11.88 3.91527H197.12C199.075 3.91675 200.95 4.59255 202.333 5.79431C203.716 6.99607 204.493 8.62559 204.495 10.3251V37.4748Z" fill="black"/>
</svg>
