<svg width="20" height="24" viewBox="0 0 20 24" fill="none" xmlns="http://www.w3.org/2000/svg">
<path d="M5.60536 22.8547C5.13486 22.698 4.66437 22.3845 4.3507 21.7574C4.03704 21.4439 3.72337 20.9736 3.25288 20.3466C2.62555 19.4061 1.99822 18.152 1.52772 16.898C1.05722 15.4872 0.900391 14.0763 0.900391 12.6655C0.900391 11.098 1.21406 9.84392 1.84138 8.74662C2.31188 7.80608 3.09604 7.17905 3.88021 6.55203C4.66437 6.08176 5.60536 5.76824 6.54636 5.76824C6.86002 5.76824 7.17369 5.76824 7.64418 5.925C7.95785 5.925 8.27151 6.08176 8.74201 6.23851C9.21251 6.39527 9.52617 6.55203 9.683 6.55203C9.99667 6.70878 10.3103 6.70878 10.4672 6.70878C10.624 6.70878 10.7808 6.70878 11.0945 6.55203C11.2513 6.55203 11.565 6.39527 11.8787 6.23851C12.1923 6.08176 12.506 5.925 12.8197 5.925C13.1333 5.925 13.447 5.76824 13.7606 5.76824C14.0743 5.76824 14.5448 5.61149 14.8585 5.76824C15.4858 5.76824 16.1131 5.925 16.7405 6.23851C17.6815 6.55203 18.4656 7.33581 19.0929 8.11959C18.9361 8.11959 18.6224 8.27635 18.4656 8.58986C17.9951 9.06013 17.5246 9.5304 17.211 10.0007C16.8973 10.7845 16.5836 11.5682 16.5836 12.5088C16.5836 13.6061 16.8973 14.5466 17.3678 15.3304C17.6815 15.9574 18.3088 16.4277 18.7793 16.7412C19.2498 16.898 19.5634 17.0547 19.7203 17.2115C19.7203 17.525 19.5634 17.9953 19.4066 18.152C19.0929 19.0926 18.6224 19.7196 18.152 20.5034C17.6815 21.1304 17.3678 21.6007 17.211 21.7574C16.7405 22.2277 16.4268 22.698 15.9563 22.8547C15.6426 23.1682 15.1721 23.325 14.5448 23.325C14.2311 23.325 13.9175 23.325 13.6038 23.1682C13.447 23.1682 13.1333 23.0115 12.8197 22.8547C12.3492 22.698 12.1923 22.5412 11.8787 22.5412C11.565 22.3845 11.0945 22.3845 10.7808 22.3845C10.4672 22.3845 9.99667 22.3845 9.683 22.5412C9.36934 22.5412 9.05567 22.698 8.74201 22.8547C8.27151 23.0115 8.11468 23.1682 7.95785 23.1682C7.64418 23.325 7.33052 23.325 7.01685 23.325C6.54636 23.325 6.07586 23.1682 5.60536 22.8547ZM12.1923 4.98446C11.565 5.29797 10.9377 5.45473 10.3103 5.45473C10.1535 4.8277 10.3103 4.20068 10.624 3.41689C10.9377 2.78986 11.0945 2.31959 11.565 1.84932C12.0355 1.37905 12.506 0.908784 13.1333 0.595271C13.7606 0.281757 14.388 0.125 15.0153 0.125C15.0153 0.752027 14.8585 1.37905 14.7016 2.16284C14.5448 2.78986 14.0743 3.26013 13.7606 3.73041C13.2901 4.35743 12.8197 4.67095 12.1923 4.98446Z" fill="white"/>
</svg>
