<svg width="25" height="25" viewBox="0 0 25 25" fill="none" xmlns="http://www.w3.org/2000/svg">
<g clip-path="url(#clip0_366_29109)">
<path d="M24.5 12.125C24.5 5.49758 19.1274 0.125 12.5 0.125C5.87258 0.125 0.5 5.49758 0.5 12.125C0.5 18.1145 4.8882 23.079 10.625 23.9792V15.5938H7.57812V12.125H10.625V9.48125C10.625 6.47375 12.4166 4.8125 15.1576 4.8125C16.4701 4.8125 17.8438 5.04688 17.8438 5.04688V8H16.3306C14.84 8 14.375 8.92508 14.375 9.875V12.125H17.7031L17.1711 15.5938H14.375V23.9792C20.1118 23.079 24.5 18.1145 24.5 12.125Z" fill="#1877F2"/>
<path d="M17.1711 15.5938L17.7031 12.125H14.375V9.875C14.375 8.92602 14.84 8 16.3306 8H17.8438V5.04688C17.8438 5.04688 16.4705 4.8125 15.1576 4.8125C12.4166 4.8125 10.625 6.47375 10.625 9.48125V12.125H7.57812V15.5938H10.625V23.9792C11.8674 24.1736 13.1326 24.1736 14.375 23.9792V15.5938H17.1711Z" fill="white"/>
</g>
<defs>
<clipPath id="clip0_366_29109">
<rect width="24" height="24" fill="white" transform="translate(0.5 0.125)"/>
</clipPath>
</defs>
</svg>
