<svg width="23" height="23" viewBox="0 0 23 23" fill="none" xmlns="http://www.w3.org/2000/svg">
<path d="M21.18 11.3542C21.18 10.6392 21.1158 9.95169 20.9967 9.29169H11.5V13.1921H16.9267C16.6929 14.4525 15.9825 15.5204 14.9146 16.2354V18.7654H18.1733C20.08 17.01 21.18 14.425 21.18 11.3542Z" fill="#4285F4"/>
<path d="M11.4991 21.2083C14.2216 21.2083 16.5041 20.3054 18.1724 18.7654L14.9137 16.2354C14.0108 16.8404 12.8558 17.1979 11.4991 17.1979C8.87286 17.1979 6.64995 15.4242 5.85703 13.0408H2.48828V15.6533C4.14745 18.9487 7.55745 21.2083 11.4991 21.2083Z" fill="#34A853"/>
<path d="M5.85726 13.0408C5.6556 12.4358 5.54101 11.7896 5.54101 11.125C5.54101 10.4604 5.6556 9.81418 5.85726 9.20918V6.59668H2.48852C1.78268 8.0018 1.41539 9.55257 1.41602 11.125C1.41602 12.7521 1.8056 14.2921 2.48852 15.6533L5.85726 13.0408Z" fill="#FBBC05"/>
<path d="M11.4991 5.0521C12.9795 5.0521 14.3087 5.56085 15.3537 6.56002L18.2458 3.66794C16.4995 2.04085 14.217 1.04169 11.4991 1.04169C7.55745 1.04169 4.14745 3.30127 2.48828 6.59669L5.85703 9.20919C6.64995 6.82585 8.87287 5.0521 11.4991 5.0521Z" fill="#EA4335"/>
</svg>
