<svg width="299" height="148" viewBox="0 0 299 148" fill="none" xmlns="http://www.w3.org/2000/svg">
<path d="M298.362 68.0958C298.543 66.727 297.581 65.4703 296.212 65.2888C294.844 65.1073 293.587 66.0698 293.405 67.4385L298.362 68.0958ZM160.062 144.976L160.539 142.522L160.539 142.522L160.062 144.976ZM43.93 119.721L42.7641 121.933L42.7649 121.933L43.93 119.721ZM9.85568 4.04397C8.86358 3.0837 7.28089 3.10951 6.32062 4.10161C5.36035 5.0937 5.38616 6.67641 6.37827 7.63668L9.85568 4.04397ZM0.804225 47.1922C0.739448 48.5714 1.80499 49.742 3.18418 49.8068C4.56339 49.8716 5.73395 48.806 5.79872 47.4268L0.804225 47.1922ZM39.4848 8.6581C40.8413 8.91565 42.1497 8.02478 42.4072 6.66829C42.6648 5.31182 41.7739 4.0034 40.4174 3.74586L39.4848 8.6581ZM295.884 67.7671C293.405 67.4385 293.405 67.4382 293.405 67.4383C293.405 67.4387 293.405 67.439 293.405 67.4398C293.405 67.4414 293.405 67.4441 293.404 67.448C293.403 67.4557 293.401 67.468 293.399 67.4848C293.395 67.5184 293.387 67.5699 293.378 67.6388C293.359 67.7765 293.329 67.9835 293.289 68.255C293.209 68.7981 293.086 69.5989 292.917 70.619C292.58 72.6596 292.059 75.5749 291.329 79.0573C289.867 86.0327 287.575 95.2352 284.25 104.226C280.91 113.258 276.602 121.871 271.2 127.829C265.852 133.727 259.664 136.808 252.289 135.524L251.431 140.449C261.021 142.12 268.817 137.902 274.904 131.188C280.938 124.533 285.515 115.223 288.94 105.961C292.38 96.658 294.732 87.1973 296.223 80.083C296.97 76.5206 297.503 73.5343 297.85 71.4347C298.024 70.3846 298.151 69.5556 298.235 68.9863C298.277 68.7017 298.309 68.4819 298.33 68.3319C298.34 68.2569 298.348 68.1993 298.353 68.1597C298.356 68.14 298.358 68.1247 298.36 68.114C298.36 68.1087 298.361 68.1045 298.361 68.1014C298.361 68.0999 298.362 68.0985 298.362 68.0977C298.362 68.0966 298.362 68.0958 295.884 67.7671ZM252.289 135.524C245.517 134.344 241.786 128.264 239.744 117.463C237.726 106.787 237.633 92.9366 237.006 78.3405C236.387 63.9279 235.243 48.8886 230.956 36.4816C226.635 23.9732 219.001 13.8319 205.313 9.8271L203.909 14.6259C215.549 18.0316 222.245 26.5767 226.23 38.1142C230.251 49.7531 231.391 64.1192 232.011 78.5551C232.623 92.8076 232.724 107.249 234.831 118.391C236.914 129.409 241.239 138.674 251.431 140.449L252.289 135.524ZM205.313 9.8271C191.314 5.73134 178.722 12.4697 168.686 23.9606C158.644 35.4586 150.714 52.1451 145.712 69.3843C140.708 86.6279 138.55 104.714 140.286 119.116C141.995 133.291 147.702 145.118 159.584 147.43L160.539 142.522C152.118 140.884 146.91 132.29 145.25 118.518C143.617 104.973 145.636 87.5865 150.514 70.7777C155.393 53.9643 163.047 38.0183 172.452 27.2496C181.863 16.4738 192.58 11.3112 203.909 14.6259L205.313 9.8271ZM159.584 147.43C165.272 148.537 170.361 147.496 174.745 144.768C179.07 142.077 182.574 137.832 185.369 132.719C190.945 122.517 194.013 108.285 194.947 93.7956C195.882 79.2719 194.692 64.1993 191.531 52.192C189.952 46.1928 187.853 40.8497 185.201 36.7034C182.563 32.5781 179.219 29.3971 175.073 28.204L173.69 33.009C176.217 33.7361 178.699 35.8163 180.989 39.397C183.265 42.9567 185.195 47.7644 186.696 53.4648C189.694 64.8565 190.865 79.3778 189.957 93.4742C189.047 107.604 186.066 121.019 180.982 130.32C178.446 134.959 175.467 138.43 172.104 140.523C168.8 142.579 164.997 143.39 160.539 142.522L159.584 147.43ZM175.073 28.204C167.491 26.0224 159.859 28.1462 152.805 32.2829C145.751 36.419 138.988 42.726 132.923 49.4654C126.841 56.2237 121.36 63.5309 116.896 69.7625C112.359 76.0962 109.012 81.1089 106.977 83.6261L110.865 86.7699C113.017 84.1083 116.61 78.7476 120.961 72.6742C125.385 66.4987 130.741 59.3652 136.64 52.8102C142.556 46.2363 148.919 40.3574 155.334 36.596C161.747 32.8353 167.925 31.3501 173.69 33.009L175.073 28.204ZM106.977 83.6261C102.482 89.1854 94.9247 101.667 84.086 110.998C78.7393 115.601 72.7947 119.228 66.3327 120.714C59.9364 122.186 52.8652 121.602 45.0952 117.509L42.7649 121.933C51.571 126.572 59.8648 127.333 67.4538 125.587C74.9771 123.856 81.6379 119.703 87.3482 114.787C98.6233 105.08 106.985 91.5681 110.865 86.7699L106.977 83.6261ZM45.096 117.51C37.6289 113.573 33.4992 106.861 31.1163 98.1111C28.7102 89.2759 28.1717 78.6866 27.6983 67.3569C27.23 56.1479 26.8251 44.2634 24.5564 33.3074C22.2801 22.3149 18.0836 12.0078 9.85568 4.04397L6.37827 7.63668C13.6246 14.6505 17.4988 23.8831 19.6603 34.3213C21.8293 44.7959 22.2291 56.2331 22.7027 67.5656C23.1711 78.7775 23.7116 89.9496 26.292 99.4249C28.8954 108.985 33.6597 117.133 42.7641 121.933L45.096 117.51ZM3.30147 47.3095C5.79872 47.4268 5.79874 47.4267 5.79874 47.4264C5.79877 47.4262 5.79877 47.4257 5.7988 47.4251C5.79886 47.424 5.79894 47.4223 5.79906 47.42C5.79926 47.4155 5.79958 47.4086 5.80002 47.3995C5.80087 47.3813 5.80214 47.3542 5.80383 47.3183C5.80721 47.2466 5.81223 47.14 5.81882 47.0007C5.83198 46.7222 5.85134 46.313 5.8762 45.7904C5.92589 44.7453 5.99749 43.2467 6.08509 41.4333C6.26029 37.8064 6.49946 32.9209 6.75533 27.8855C7.27041 17.7496 7.84515 7.18384 8.10237 4.87484L3.13309 4.32128C2.85418 6.82508 2.27081 17.615 1.76179 27.6317C1.50561 32.6726 1.26625 37.5626 1.09091 41.1921C1.00325 43.0069 0.931577 44.5067 0.881834 45.5529C0.85696 46.0761 0.837581 46.4858 0.824394 46.7648C0.817802 46.9043 0.812757 47.0111 0.809382 47.0831C0.807682 47.119 0.806395 47.1463 0.805538 47.1646C0.805097 47.1737 0.804775 47.1806 0.804567 47.1853C0.804462 47.1876 0.804363 47.1893 0.804317 47.1905C0.804282 47.1911 0.804271 47.1915 0.804265 47.1918C0.804233 47.1921 0.804225 47.1922 3.30147 47.3095ZM8.10237 4.87484C8.04453 5.39398 7.75087 5.69877 7.63509 5.78964C7.56299 5.84619 7.61718 5.78156 7.94835 5.68475C8.60618 5.49245 9.70952 5.35371 11.2665 5.3176C14.3288 5.24659 18.4618 5.57993 22.6932 6.07808C26.8984 6.57312 31.098 7.21815 34.2533 7.74093C35.829 8.00202 37.1402 8.23193 38.0562 8.39634C38.5141 8.47853 38.873 8.54431 39.1166 8.58937C39.2384 8.61191 39.3313 8.62925 39.3934 8.64089C39.4244 8.64672 39.4477 8.6511 39.4631 8.65399C39.4707 8.65544 39.4764 8.65651 39.48 8.6572C39.4818 8.65753 39.4831 8.65779 39.4839 8.65793C39.4843 8.65801 39.4846 8.65806 39.4847 8.65808C39.4848 8.65811 39.4848 8.6581 39.9511 6.20197C40.4174 3.74586 40.4171 3.7458 40.4167 3.74572C40.4164 3.74565 40.4158 3.74555 40.4152 3.74544C40.414 3.7452 40.4122 3.74486 40.4099 3.74443C40.4054 3.74356 40.3988 3.74233 40.3902 3.74071C40.373 3.73745 40.3478 3.73272 40.3149 3.72653C40.249 3.71418 40.1521 3.69609 40.0262 3.67281C39.7745 3.62624 39.4068 3.55885 38.9395 3.47498C38.0051 3.30728 36.6716 3.07347 35.0706 2.80819C31.8721 2.27824 27.5889 1.61988 23.2778 1.11237C18.9928 0.607931 14.576 0.239502 11.1505 0.318953C9.46361 0.358074 7.83856 0.507616 6.54547 0.8856C5.9012 1.07394 5.17428 1.36493 4.54823 1.85627C3.87847 2.38188 3.25795 3.20055 3.13309 4.32128L8.10237 4.87484Z" fill="#FCFCFD"/>
</svg>
